<svg xmlns="http://www.w3.org/2000/svg" viewBox="0 0 128 128" role="img" aria-labelledby="favicon-title">
  <title id="favicon-title">experimental-commons favicon</title>
  <defs>
    <linearGradient id="tile-gradient" x1="18" x2="110" y1="12" y2="116" gradientUnits="userSpaceOnUse">
      <stop offset="0" stop-color="#102033" />
      <stop offset="1" stop-color="#17324D" />
    </linearGradient>
  </defs>
  <rect id="tile" x="8" y="8" width="112" height="112" rx="28" fill="url(#tile-gradient)" />
  <circle cx="96" cy="28" r="14" fill="#F4B942" opacity="0.18" />
  <path
    id="book"
    fill="#F8F1E5"
    d="M28 80c11-6 23-9 36-9s25 3 36 9v24c-11-6-23-9-36-9s-25 3-36 9V80Z"
  />
  <path d="M64 73v30" fill="none" stroke="#102033" stroke-linecap="round" stroke-width="6" />
  <path d="M36 86c9-4 18-6 28-6s19 2 28 6" fill="none" stroke="#D7C5A1" stroke-linecap="round" stroke-width="4" />
  <path
    id="sprout-stem"
    d="M64 69V48"
    fill="none"
    stroke="#F4B942"
    stroke-linecap="round"
    stroke-width="7"
  />
  <ellipse id="leaf-left" cx="50" cy="47" rx="12" ry="18" transform="rotate(-38 50 47)" fill="#58B09C" />
  <ellipse id="leaf-right" cx="78" cy="47" rx="12" ry="18" transform="rotate(38 78 47)" fill="#E76F51" />
  <circle id="bud" cx="64" cy="37" r="6" fill="#F4B942" />
</svg>
